<svg width="16" height="13" viewBox="0 0 16 13" fill="none" xmlns="http://www.w3.org/2000/svg">
<path d="M15.666 4.52183C15.7561 4.09995 15.6885 3.65635 15.4599 3.2841C15.2024 2.86533 14.7838 2.58304 14.2912 2.48688C14.1785 2.46516 14.0594 2.45275 13.9467 2.45275H13.9403C13.0967 2.45275 12.3884 3.03594 12.221 3.83317C12.1212 4.30158 11.928 4.75448 11.6575 5.17326C11.6421 5.19642 11.6206 5.21522 11.5952 5.22772C11.5697 5.24022 11.5413 5.24597 11.5128 5.2444C11.4843 5.24282 11.4567 5.23396 11.4329 5.21873C11.4091 5.20351 11.39 5.18246 11.3774 5.15775L9.62594 1.6214C9.40378 1.1716 9.00455 0.817969 8.50872 0.678377C7.65874 0.436416 6.78299 0.845888 6.42239 1.57797L4.61295 5.2446C4.56466 5.34077 4.42299 5.33767 4.38114 5.2415V5.2384C4.25069 4.92435 4.02533 4.65529 3.73426 4.46613C3.4432 4.27696 3.09987 4.1764 2.74878 4.1775C2.51696 4.1775 2.28837 4.22093 2.06943 4.30778C1.16793 4.67072 0.765477 5.6944 1.13896 6.56298C1.48024 7.3478 2.04046 8.08919 2.7681 8.72821C2.81961 8.77474 2.83571 8.84609 2.80673 8.90813L2.22076 10.0931C1.80864 10.9307 2.14027 11.9513 2.99669 12.37C3.24782 12.491 3.51505 12.5531 3.79194 12.5531C4.46807 12.5531 5.09268 12.1746 5.38245 11.5852L5.88793 10.5646C5.92013 10.4964 6.00062 10.4623 6.07467 10.484C6.68962 10.6453 7.3078 10.7321 7.91631 10.7321C8.60209 10.7321 9.27822 10.6329 9.93181 10.4499C9.96826 10.4395 10.0073 10.442 10.0421 10.4567C10.0768 10.4715 10.1051 10.4976 10.1218 10.5305L10.6208 11.5418C10.917 12.1436 11.5352 12.5531 12.2242 12.5562C12.5043 12.5562 12.7748 12.4972 13.0291 12.3731C13.8887 11.9544 14.2172 10.9307 13.805 10.09L13.1772 8.81817C13.1482 8.75613 13.1611 8.68479 13.2126 8.63826C14.4296 7.54633 15.3279 6.11628 15.666 4.52183ZM4.80613 11.3153C4.71485 11.5 4.57115 11.656 4.39166 11.7652C4.21218 11.8745 4.00425 11.9325 3.79194 11.9326C3.62452 11.9326 3.45388 11.8954 3.29612 11.821C2.74234 11.5573 2.53306 10.8934 2.80029 10.3568L3.28646 9.37344C3.32831 9.28658 3.44422 9.25556 3.52149 9.3114C3.62452 9.38275 3.73077 9.45099 3.84024 9.51924C4.26845 9.78291 4.71598 10.0063 5.17639 10.1893C5.26332 10.2234 5.30196 10.3165 5.26332 10.3971L4.80613 11.3153ZM7.91631 10.1086C5.33737 10.1086 2.61355 8.42421 1.71205 6.27449C1.6007 6.00915 1.60327 5.71208 1.71919 5.44857C1.83511 5.18506 2.0549 4.97669 2.33022 4.86926C2.46867 4.81652 2.61033 4.7886 2.74878 4.7886C3.19309 4.7886 3.61164 5.04297 3.78872 5.46485C4.35216 6.81114 6.24209 7.9496 7.91631 7.9496C8.17388 7.9496 8.43145 7.92478 8.6858 7.88135C8.75663 7.86894 8.82747 7.90307 8.85966 7.96511L9.70321 9.67744C9.74507 9.7643 9.69677 9.86667 9.6034 9.89149C9.05284 10.0311 8.4894 10.1086 7.91631 10.1086ZM7.54927 7.1989L7.93885 6.41098C7.97104 6.34894 8.06441 6.34894 8.09661 6.41098L8.47653 7.18029C8.50228 7.22992 8.46687 7.29196 8.41213 7.30127C8.24793 7.32298 8.08373 7.33539 7.92275 7.33539C7.82294 7.33539 7.72313 7.32919 7.62332 7.31988C7.55571 7.31057 7.52351 7.24853 7.54927 7.1989ZM12.7329 11.8179C12.5995 11.8813 12.4543 11.9185 12.3059 11.9274C12.1574 11.9363 12.0086 11.9166 11.8681 11.8695C11.7275 11.8225 11.5981 11.749 11.4874 11.6533C11.3766 11.5576 11.2867 11.4417 11.2229 11.3122L8.16744 5.12362C8.10627 4.99954 7.92275 4.99954 7.86479 5.12362L6.91822 7.0438C6.8828 7.11514 6.79909 7.14927 6.72182 7.12445C6.07789 6.91041 5.46616 6.54747 5.01219 6.11008C4.98909 6.08769 4.97387 6.05888 4.96867 6.02772C4.96347 5.99655 4.96856 5.9646 4.98321 5.93636L7.03091 1.78581C7.10174 1.64001 7.21121 1.50973 7.34965 1.41977C7.99358 1.0134 8.74698 1.26777 9.02709 1.83544L13.2287 10.3506C13.4927 10.8903 13.2867 11.5542 12.7329 11.8179ZM11.8475 6.12249C11.8346 6.09657 11.8296 6.06769 11.833 6.03915C11.8365 6.01062 11.8482 5.98359 11.8668 5.96118C12.3465 5.36869 12.6975 4.67693 12.8488 3.94174C12.9551 3.4299 13.4219 3.07316 13.9467 3.07316C14.0369 3.07316 14.127 3.08247 14.2204 3.10419C14.816 3.24688 15.1605 3.84247 15.0349 4.42256C14.7387 5.78126 14.0047 7.01278 13.0033 7.97752C12.9229 8.05507 12.7909 8.03335 12.7426 7.93719L11.8475 6.12249Z" fill="white" stroke="white" stroke-width="0.3"/>
</svg>
