<svg width="16" height="16" viewBox="0 0 16 16" fill="none" xmlns="http://www.w3.org/2000/svg">
<path fill-rule="evenodd" clip-rule="evenodd" d="M1 1.06567H14.9613V4.0144H1L1 1.06567ZM0 1.06567C0 0.513389 0.447715 0.0656738 1 0.0656738H14.9613C15.5136 0.0656738 15.9613 0.513389 15.9613 1.06567V4.0144C15.9613 4.55603 15.5307 4.99708 14.9932 5.01391V5.02686V13C14.9932 14.6569 13.65 16 11.9932 16H3.96814C2.31129 16 0.96814 14.6569 0.96814 13V5.02686V5.01391C0.430599 4.99708 0 4.55603 0 4.0144V1.06567ZM13.9932 5.02686H1.96814V13C1.96814 14.1046 2.86357 15 3.96814 15H11.9932C13.0977 15 13.9932 14.1046 13.9932 13V5.02686ZM9.95154 8.07495H6.01318V7.07495H9.95154V8.07495Z" fill="white"/>
</svg>
