<svg width="13" height="7" viewBox="0 0 13 7" fill="none" xmlns="http://www.w3.org/2000/svg">
<path fill-rule="evenodd" clip-rule="evenodd" d="M9.32755 1.30212H7.48846V0.302124H9.32755C11.1392 0.302124 12.6079 1.77078 12.6079 3.58246C12.6079 5.39414 11.1392 6.86279 9.32756 6.86279H7.48846V5.86279H9.32756C10.587 5.86279 11.6079 4.84185 11.6079 3.58246C11.6079 2.32307 10.5869 1.30212 9.32755 1.30212ZM5.48846 0.302124V1.30212H3.51032C2.25092 1.30212 1.22998 2.32307 1.22998 3.58246C1.22998 4.84185 2.25092 5.86279 3.51032 5.86279H5.48846V6.86279H3.51032C1.69864 6.86279 0.22998 5.39414 0.22998 3.58246C0.22998 1.77078 1.69864 0.302124 3.51032 0.302124H5.48846ZM3.58313 4.08246H9.39375V3.08246H3.58313V4.08246Z" fill="white"/>
</svg>
