<svg width="13" height="11" viewBox="0 0 13 11" fill="none" xmlns="http://www.w3.org/2000/svg">
<mask id="path-1-inside-1_2002_231" fill="white">
<path fill-rule="evenodd" clip-rule="evenodd" d="M10.0957 2.08246H12.2257V3.08246H10.0957C9.87633 3.88572 9.14144 4.47618 8.26863 4.47618C7.39583 4.47618 6.66094 3.88572 6.44161 3.08246H0.607937V2.08246H6.44161C6.66093 1.27919 7.39582 0.688721 8.26863 0.688721C9.14145 0.688721 9.87634 1.27919 10.0957 2.08246ZM9.2013 2.58245C9.2013 3.09753 8.78374 3.51508 8.26866 3.51508C7.75358 3.51508 7.33603 3.09753 7.33603 2.58245C7.33603 2.06737 7.75358 1.64981 8.26866 1.64981C8.78374 1.64981 9.2013 2.06737 9.2013 2.58245ZM2.73795 8.08246H0.60791V9.08246H2.73795C2.95728 9.88572 3.69217 10.4762 4.56498 10.4762C5.43778 10.4762 6.17268 9.88572 6.392 9.08246H12.2257V8.08246H6.392C6.17268 7.27919 5.43779 6.68872 4.56498 6.68872C3.69217 6.68872 2.95727 7.27919 2.73795 8.08246ZM3.63231 8.58245C3.63231 9.09753 4.04987 9.51508 4.56495 9.51508C5.08003 9.51508 5.49759 9.09753 5.49759 8.58245C5.49759 8.06737 5.08003 7.64981 4.56495 7.64981C4.04987 7.64981 3.63231 8.06737 3.63231 8.58245Z"/>
</mask>
<path fill-rule="evenodd" clip-rule="evenodd" d="M10.0957 2.08246H12.2257V3.08246H10.0957C9.87633 3.88572 9.14144 4.47618 8.26863 4.47618C7.39583 4.47618 6.66094 3.88572 6.44161 3.08246H0.607937V2.08246H6.44161C6.66093 1.27919 7.39582 0.688721 8.26863 0.688721C9.14145 0.688721 9.87634 1.27919 10.0957 2.08246ZM9.2013 2.58245C9.2013 3.09753 8.78374 3.51508 8.26866 3.51508C7.75358 3.51508 7.33603 3.09753 7.33603 2.58245C7.33603 2.06737 7.75358 1.64981 8.26866 1.64981C8.78374 1.64981 9.2013 2.06737 9.2013 2.58245ZM2.73795 8.08246H0.60791V9.08246H2.73795C2.95728 9.88572 3.69217 10.4762 4.56498 10.4762C5.43778 10.4762 6.17268 9.88572 6.392 9.08246H12.2257V8.08246H6.392C6.17268 7.27919 5.43779 6.68872 4.56498 6.68872C3.69217 6.68872 2.95727 7.27919 2.73795 8.08246ZM3.63231 8.58245C3.63231 9.09753 4.04987 9.51508 4.56495 9.51508C5.08003 9.51508 5.49759 9.09753 5.49759 8.58245C5.49759 8.06737 5.08003 7.64981 4.56495 7.64981C4.04987 7.64981 3.63231 8.06737 3.63231 8.58245Z" fill="white"/>
<path d="M12.2257 2.08246H13.2257V1.08246H12.2257V2.08246ZM10.0957 2.08246L9.13097 2.34585L9.33209 3.08246H10.0957V2.08246ZM12.2257 3.08246V4.08246H13.2257V3.08246H12.2257ZM10.0957 3.08246V2.08246H9.33209L9.13097 2.81906L10.0957 3.08246ZM6.44161 3.08246L7.4063 2.81906L7.20518 2.08246H6.44161V3.08246ZM0.607937 3.08246H-0.392063V4.08246H0.607937V3.08246ZM0.607937 2.08246V1.08246H-0.392063V2.08246H0.607937ZM6.44161 2.08246V3.08246H7.20518L7.4063 2.34585L6.44161 2.08246ZM0.60791 8.08246V7.08246H-0.39209V8.08246H0.60791ZM2.73795 8.08246V9.08246H3.50152L3.70264 8.34585L2.73795 8.08246ZM0.60791 9.08246H-0.39209V10.0825H0.60791V9.08246ZM2.73795 9.08246L3.70264 8.81906L3.50152 8.08246H2.73795V9.08246ZM6.392 9.08246V8.08246H5.62843L5.42731 8.81906L6.392 9.08246ZM12.2257 9.08246V10.0825H13.2257V9.08246H12.2257ZM12.2257 8.08246H13.2257V7.08246H12.2257V8.08246ZM6.392 8.08246L5.42731 8.34585L5.62843 9.08246H6.392V8.08246ZM12.2257 1.08246H10.0957V3.08246H12.2257V1.08246ZM13.2257 3.08246V2.08246H11.2257V3.08246H13.2257ZM10.0957 4.08246H12.2257V2.08246H10.0957V4.08246ZM8.26863 5.47618C9.60375 5.47618 10.7253 4.57288 11.0603 3.34586L9.13097 2.81906C9.02735 3.19856 8.67913 3.47618 8.26863 3.47618V5.47618ZM5.47693 3.34586C5.81195 4.57288 6.93352 5.47618 8.26863 5.47618V3.47618C7.85814 3.47618 7.50992 3.19856 7.4063 2.81906L5.47693 3.34586ZM0.607937 4.08246H6.44161V2.08246H0.607937V4.08246ZM-0.392063 2.08246V3.08246H1.60794V2.08246H-0.392063ZM6.44161 1.08246H0.607937V3.08246H6.44161V1.08246ZM8.26863 -0.311279C6.93351 -0.311279 5.81194 0.592035 5.47692 1.81907L7.4063 2.34585C7.50991 1.96635 7.85814 1.68872 8.26863 1.68872V-0.311279ZM11.0604 1.81907C10.7253 0.592034 9.60376 -0.311279 8.26863 -0.311279V1.68872C8.67913 1.68872 9.02736 1.96635 9.13097 2.34585L11.0604 1.81907ZM8.26866 4.51508C9.33603 4.51508 10.2013 3.64981 10.2013 2.58245H8.2013C8.2013 2.54524 8.23146 2.51508 8.26866 2.51508V4.51508ZM6.33603 2.58245C6.33603 3.64981 7.2013 4.51508 8.26866 4.51508V2.51508C8.30587 2.51508 8.33603 2.54524 8.33603 2.58245H6.33603ZM8.26866 0.649811C7.2013 0.649811 6.33603 1.51508 6.33603 2.58245H8.33603C8.33603 2.61965 8.30587 2.64981 8.26866 2.64981V0.649811ZM10.2013 2.58245C10.2013 1.51508 9.33603 0.649811 8.26866 0.649811V2.64981C8.23146 2.64981 8.2013 2.61965 8.2013 2.58245H10.2013ZM0.60791 9.08246H2.73795V7.08246H0.60791V9.08246ZM1.60791 9.08246V8.08246H-0.39209V9.08246H1.60791ZM2.73795 8.08246H0.60791V10.0825H2.73795V8.08246ZM4.56498 9.47618C4.15448 9.47618 3.80626 9.19856 3.70264 8.81906L1.77327 9.34586C2.10829 10.5729 3.22986 11.4762 4.56498 11.4762V9.47618ZM5.42731 8.81906C5.32369 9.19856 4.97547 9.47618 4.56498 9.47618V11.4762C5.90009 11.4762 7.02166 10.5729 7.35668 9.34586L5.42731 8.81906ZM12.2257 8.08246H6.392V10.0825H12.2257V8.08246ZM11.2257 8.08246V9.08246H13.2257V8.08246H11.2257ZM6.392 9.08246H12.2257V7.08246H6.392V9.08246ZM4.56498 7.68872C4.97547 7.68872 5.3237 7.96635 5.42731 8.34585L7.35669 7.81907C7.02167 6.59203 5.9001 5.68872 4.56498 5.68872V7.68872ZM3.70264 8.34585C3.80625 7.96635 4.15448 7.68872 4.56498 7.68872V5.68872C3.22985 5.68872 2.10828 6.59203 1.77326 7.81907L3.70264 8.34585ZM4.56495 8.51508C4.60215 8.51508 4.63231 8.54524 4.63231 8.58245H2.63231C2.63231 9.64981 3.49758 10.5151 4.56495 10.5151V8.51508ZM4.49759 8.58245C4.49759 8.54524 4.52774 8.51508 4.56495 8.51508V10.5151C5.63232 10.5151 6.49759 9.64981 6.49759 8.58245H4.49759ZM4.56495 8.64981C4.52775 8.64981 4.49759 8.61965 4.49759 8.58245H6.49759C6.49759 7.51508 5.63231 6.64981 4.56495 6.64981V8.64981ZM4.63231 8.58245C4.63231 8.61965 4.60215 8.64981 4.56495 8.64981V6.64981C3.49758 6.64981 2.63231 7.51508 2.63231 8.58245H4.63231Z" fill="white" mask="url(#path-1-inside-1_2002_231)"/>
</svg>
